<?xml version="1.0" standalone="no"?><!DOCTYPE svg PUBLIC "-//W3C//DTD SVG 1.1//EN" "http://www.w3.org/Graphics/SVG/1.1/DTD/svg11.dtd"><svg class="icon" width="128px" height="128.00px" viewBox="0 0 1024 1024" version="1.1" xmlns="http://www.w3.org/2000/svg"><path d="M673.64 919.09a1962.1 1962.1 0 0 1-312.53 0 262.4 262.4 0 0 1-240.67-240.66 1962.1 1962.1 0 0 1 0-312.53 262.4 262.4 0 0 1 240.67-240.67 1962.1 1962.1 0 0 1 312.53 0A262.4 262.4 0 0 1 914.3 365.9a1962.1 1962.1 0 0 1 0 312.53 262.4 262.4 0 0 1-240.66 240.66z" fill="#FFDEDE" /><path d="M287.12 698.49L284.17 663c-2.91-34.86-4.37-105.7-4.38-140.65 0-35.15 1.45-106.2 4.38-141.27l2.95-35.49c5.5-65.9 60.13-118.24 128.92-123.5l40.52-3.1c33.69-2.58 88.81-2.58 122.5 0l40.52 3.1c68.79 5.26 123.42 57.6 128.92 123.5l3 35.49c2.91 35 4.37 105.91 4.37 141s-1.46 106-4.37 141l-3 35.49C743 764.39 688.37 816.72 619.58 822l-37.05 2.83c-36.5 2.8-109 3-129.44 0L416 822c-68.75-5.28-123.38-57.61-128.88-123.51z" fill="#FF3B3B" /><path d="M516.62 447.6a188.34 188.34 0 0 1-104.07-31.3l-70.45-46.68a19.43 19.43 0 0 1 21.46-32.39L434 383.91a149.71 149.71 0 0 0 162.87 1.51l76-48.38a19.42 19.42 0 0 1 20.85 32.78l-76 48.38a188.27 188.27 0 0 1-101.1 29.4z" fill="#FFDEDE" /><path d="M516 424m-70 0a70 70 0 1 0 140 0 70 70 0 1 0-140 0Z" fill="#FFDEDE" /></svg>