<?xml version="1.0" standalone="no"?><!DOCTYPE svg PUBLIC "-//W3C//DTD SVG 1.1//EN" "http://www.w3.org/Graphics/SVG/1.1/DTD/svg11.dtd"><svg class="icon" width="128px" height="128.00px" viewBox="0 0 1024 1024" version="1.1" xmlns="http://www.w3.org/2000/svg"><path d="M670.64 910.09a1962.1 1962.1 0 0 1-312.53 0 262.4 262.4 0 0 1-240.67-240.66 1962.1 1962.1 0 0 1 0-312.53 262.4 262.4 0 0 1 240.67-240.67 1962.1 1962.1 0 0 1 312.53 0A262.4 262.4 0 0 1 911.3 356.9a1962.1 1962.1 0 0 1 0 312.53 262.4 262.4 0 0 1-240.66 240.66z" fill="#F1DFFF" /><path d="M602.51 714.72l179.6-201.54A89.49 89.49 0 0 0 794 411l-44-81.16A89.51 89.51 0 0 0 671.29 283H357.71A89.51 89.51 0 0 0 279 329.81L235 411a89.49 89.49 0 0 0 11.86 102.21l179.6 201.54a117.9 117.9 0 0 0 176.05-0.03z" fill="#BE85FF" /><path d="M514.5 683.12a30 30 0 0 1-22.36-10L358.25 522.86A27.32 27.32 0 0 1 399 486.51l115.5 129.56L630 486.51a27.32 27.32 0 0 1 40.79 36.35L536.86 673.09a30 30 0 0 1-22.36 10.03z" fill="#F1DFFF" /></svg>