<?xml version="1.0" standalone="no"?><!DOCTYPE svg PUBLIC "-//W3C//DTD SVG 1.1//EN" "http://www.w3.org/Graphics/SVG/1.1/DTD/svg11.dtd"><svg class="icon" width="128px" height="128.00px" viewBox="0 0 1024 1024" version="1.1" xmlns="http://www.w3.org/2000/svg"><path d="M670.64 908.09a1962.1 1962.1 0 0 1-312.53 0 262.4 262.4 0 0 1-240.67-240.66 1962.1 1962.1 0 0 1 0-312.53 262.4 262.4 0 0 1 240.67-240.67 1962.1 1962.1 0 0 1 312.53 0A262.4 262.4 0 0 1 911.3 354.9a1962.1 1962.1 0 0 1 0 312.53 262.4 262.4 0 0 1-240.66 240.66z" fill="#D3EEFF" /><path d="M276 479.67c-2.18 27.32-2.18 125.29 0 152.6l2.63 32.86a114 114 0 0 0 104.5 104.55l30 2.4c29.69 2.37 71.61 3.56 101.37 3.55 29.58 0 71.32-1.19 100.83-3.55l30-2.4A114 114 0 0 0 750 665.13l2.4-30c2.52-16.55 2.37-128.64 0-158.24 0 0-45.47 13.42-238.28 13.42C322 490.27 276 479.67 276 479.67z" fill="#39B2FF" /><path d="M746.79 497.79l-14.14 1.13c-13.9 1.11-204.33 1.66-218.26 1.67s-204.54-0.56-218.51-1.67l-14.15-1.13a53.67 53.67 0 0 1-49.21-49.22l-1.24-15.47c-1-12.86-1-6.89 0-19.75l1.24-15.47a53.67 53.67 0 0 1 49.21-49.22l14.15-1.13c13.93-1.11 204.41-1.67 218.38-1.67s204.45 0.56 218.39 1.67l14.14 1.13A53.68 53.68 0 0 1 796 397.88l1.14 14.12c1.11 13.94 1.18 14.61 0 22.41L796 448.57a53.68 53.68 0 0 1-49.21 49.22zM703.45 287.26a92.13 92.13 0 0 0-103.52-30.19l-56 24.14a75 75 0 0 1-59.41 0l-56-24.14a92.14 92.14 0 0 0-103.53 30.19 19.3 19.3 0 0 0 16.3 29.74h345.93a19.3 19.3 0 0 0 16.23-29.74z" fill="#39B2FF" /><path d="M548 703.58c0 8.1-5 14.85-11.41 15.57a204.82 204.82 0 0 1-22.5 1.07 193.53 193.53 0 0 1-22.63-1.22c-6.4-0.76-11.29-7.51-11.29-15.56V516.63c0-8.63 5.6-15.63 12.5-15.63h42.81c6.9 0 12.5 7 12.5 15.63z" fill="#D3EEFF" /></svg>