<?xml version="1.0" standalone="no"?><!DOCTYPE svg PUBLIC "-//W3C//DTD SVG 1.1//EN" "http://www.w3.org/Graphics/SVG/1.1/DTD/svg11.dtd"><svg class="icon" width="128px" height="128.00px" viewBox="0 0 1024 1024" version="1.1" xmlns="http://www.w3.org/2000/svg"><path d="M673.64 907.09a1962.1 1962.1 0 0 1-312.53 0 262.4 262.4 0 0 1-240.67-240.66 1962.1 1962.1 0 0 1 0-312.53 262.4 262.4 0 0 1 240.67-240.67 1962.1 1962.1 0 0 1 312.53 0A262.4 262.4 0 0 1 914.3 353.9a1962.1 1962.1 0 0 1 0 312.53 262.4 262.4 0 0 1-240.66 240.66z" fill="#D7FFF4" /><path d="M745.65 518.07a193 193 0 0 0 2.52-31.07c0-106-85.95-192-192-192a192.05 192.05 0 0 0-179.52 123.86c-4.23-0.37-8.51-0.57-12.84-0.57a145.61 145.61 0 1 0 0 291.21h348.35a98.65 98.65 0 0 0 33.49-191.43z" fill="#0BD8A2" /><path d="M654.78 494.51a27.41 27.41 0 0 1-26.37-20 85.08 85.08 0 0 0-57.9-58.37 27.4 27.4 0 0 1 15.2-52.64 139.55 139.55 0 0 1 95.47 96.23 27.4 27.4 0 0 1-19 33.77 27.12 27.12 0 0 1-7.4 1.01z" fill="#D7FFF4" /></svg>