<?xml version="1.0" standalone="no"?><!DOCTYPE svg PUBLIC "-//W3C//DTD SVG 1.1//EN" "http://www.w3.org/Graphics/SVG/1.1/DTD/svg11.dtd"><svg class="icon" width="128px" height="128.00px" viewBox="0 0 1024 1024" version="1.1" xmlns="http://www.w3.org/2000/svg"><path d="M669.64 908.09a1962.1 1962.1 0 0 1-312.53 0 262.4 262.4 0 0 1-240.67-240.66 1962.1 1962.1 0 0 1 0-312.53 262.4 262.4 0 0 1 240.67-240.67 1962.1 1962.1 0 0 1 312.53 0A262.4 262.4 0 0 1 910.3 354.9a1962.1 1962.1 0 0 1 0 312.53 262.4 262.4 0 0 1-240.66 240.66z" fill="#FFE4CF" /><path d="M756.34 636.35l-14.62-8.44a50.5 50.5 0 0 1-25.25-43.73V447.4c0-89.26-57.89-165-138.19-191.73a29.54 29.54 0 0 1-18.74-19 49.3 49.3 0 0 0-93.85 0.41 28.94 28.94 0 0 1-18.61 18.57c-80.3 26.74-138.19 102.47-138.19 191.73v138.68a52 52 0 0 1-26 45.08l-9 5.21c-25.07 14.47-20 49.25 3 59.24 22.17 14 120.49 24.51 238.45 24.51 119.82 0 219.38-10.87 239.45-25.18 21.78-10.78 26.09-44.4 1.55-58.57zM590.29 752.6c-23.62 1-48.82 1.48-75 1.48-26.33 0-51.67-0.52-75.42-1.5A9.53 9.53 0 0 0 431 766.5a94.6 94.6 0 0 0 168.09 0 9.53 9.53 0 0 0-8.8-13.9z" fill="#FF6E1F" /><path d="M646.05 484.71a26.86 26.86 0 0 1-26.62-23.58c-7.5-60.8-42.25-91.06-64.2-104.36a27 27 0 0 1-12.08-30.62 26.94 26.94 0 0 1 39.62-15.74 179.83 179.83 0 0 1 24.72 17.66c25.21 21.4 56.92 60.56 65.16 125.72 1.8 14.24-7.49 27.82-21.6 30.45a26.68 26.68 0 0 1-5 0.47z" fill="#FFE4CF" /></svg>