<?xml version="1.0" standalone="no"?><!DOCTYPE svg PUBLIC "-//W3C//DTD SVG 1.1//EN" "http://www.w3.org/Graphics/SVG/1.1/DTD/svg11.dtd"><svg class="icon" width="128px" height="128.00px" viewBox="0 0 1024 1024" version="1.1" xmlns="http://www.w3.org/2000/svg"><path d="M673.64 907.09a1962.1 1962.1 0 0 1-312.53 0 262.4 262.4 0 0 1-240.67-240.66 1962.1 1962.1 0 0 1 0-312.53 262.4 262.4 0 0 1 240.67-240.67 1962.1 1962.1 0 0 1 312.53 0A262.4 262.4 0 0 1 914.3 353.9a1962.1 1962.1 0 0 1 0 312.53 262.4 262.4 0 0 1-240.66 240.66z" fill="#FFF6DE" /><path d="M719.18 433.34c0.68-22.11-16.83-40.67-39.39-41.76-51.53-2.48-116.13-5.85-157.13-5.84-40.7 0-104.92 3.38-156.18 5.84-22.55 1.09-40.06 19.66-39.38 41.76 2.41 78.88 15.29 250.14 16.38 263.48l2.09 25.57c3.26 40 35.67 71.72 76.48 74.91l26.12 2.05c22.68 1.77 52.43 2.66 75.17 2.65s52.22-0.89 74.77-2.65l26.53-2c41.59-3.18 74.37-36 76.76-76.75l1.39-23.74c1.09-13.38 13.97-184.64 16.39-263.52zM434.86 295.69A86.69 86.69 0 0 1 521.55 209a86.69 86.69 0 0 1 86.69 86.69 13.77 13.77 0 0 1-14.36 13.76c-15.66-0.68-42.51-1.6-72.33-1.6-30.21 0-56.81 0.91-72.32 1.59a13.77 13.77 0 0 1-14.37-13.75z" fill="#FFB636" /><path d="M453.78 729.15a29 29 0 0 1-28.88-26.54c-1.23-14.22-9.3-174-9.3-200.32a29 29 0 1 1 58 0c0 25.58 8.1 183.85 9.09 195.33A29 29 0 0 1 456.31 729c-0.85 0.11-1.69 0.15-2.53 0.15zM591.74 729.15c-0.84 0-1.68 0-2.53-0.11a29 29 0 0 1-26.43-31.42c1.7-19.69 9.09-178.51 9.09-195.33a29 29 0 1 1 58 0c0 20.56-7.73 182.16-9.3 200.32a29 29 0 0 1-28.83 26.54z" fill="#FFF6DE" /><path d="M760.68 430.57c-0.89 0-1.78 0-2.68-0.1l-64.42-5.15c-52.12-4.16-123.86-6-172-6h-0.45c-48 0-119.69 1.88-171.57 6l-64.42 5.15a33.18 33.18 0 0 1-5.29-66.14l64.42-5.15c53.7-4.29 127.52-6.22 176.85-6.23 49.5 0 123.67 1.91 177.78 6.23l64.42 5.15a33.17 33.17 0 0 1-2.6 66.24z" fill="#FFB636" /></svg>