<?xml version="1.0" standalone="no"?><!DOCTYPE svg PUBLIC "-//W3C//DTD SVG 1.1//EN" "http://www.w3.org/Graphics/SVG/1.1/DTD/svg11.dtd"><svg class="icon" width="128px" height="128.00px" viewBox="0 0 1024 1024" version="1.1" xmlns="http://www.w3.org/2000/svg"><path d="M670.64 908.09a1962.1 1962.1 0 0 1-312.53 0 262.4 262.4 0 0 1-240.67-240.66 1962.1 1962.1 0 0 1 0-312.53 262.4 262.4 0 0 1 240.67-240.67 1962.1 1962.1 0 0 1 312.53 0A262.4 262.4 0 0 1 911.3 354.9a1962.1 1962.1 0 0 1 0 312.53 262.4 262.4 0 0 1-240.66 240.66z" fill="#FFE4CF" /><path d="M515.72 230.67a221.43 221.43 0 0 1 221.44 221.44v221.43H294.29V452.11a221.43 221.43 0 0 1 221.43-221.44z" fill="#FF6E1F" /><path d="M247 671.75m53.79 0l429.42 0q53.79 0 53.79 53.79l0 0q0 53.79-53.79 53.79l-429.42 0q-53.79 0-53.79-53.79l0 0q0-53.79 53.79-53.79Z" fill="#FF6E1F" /><path d="M434.24 511h107V389.1c0-12.35-15.35-18.06-23.42-8.71l-93.67 108.55A13.33 13.33 0 0 0 434.24 511z" fill="#FFE4CF" /><path d="M596.76 479h-107v121.82c0 12.36 15.35 18.07 23.42 8.71L606.85 501a13.33 13.33 0 0 0-10.09-22z" fill="#FFE4CF" /></svg>