<?xml version="1.0" standalone="no"?><!DOCTYPE svg PUBLIC "-//W3C//DTD SVG 1.1//EN" "http://www.w3.org/Graphics/SVG/1.1/DTD/svg11.dtd"><svg class="icon" width="128px" height="128.00px" viewBox="0 0 1024 1024" version="1.1" xmlns="http://www.w3.org/2000/svg"><path d="M668.64 907.09a1962.1 1962.1 0 0 1-312.53 0 262.4 262.4 0 0 1-240.67-240.66 1962.1 1962.1 0 0 1 0-312.53 262.4 262.4 0 0 1 240.67-240.67 1962.1 1962.1 0 0 1 312.53 0A262.4 262.4 0 0 1 909.3 353.9a1962.1 1962.1 0 0 1 0 312.53 262.4 262.4 0 0 1-240.66 240.66z" fill="#FFF6DE" /><path d="M618.72 784.52q-53.22 4.26-106.62 4.27-53.67 0-107.25-4.27a179.57 179.57 0 0 1-164.7-164.69q-4.26-53.39-4.26-106.94T240.15 406a179.58 179.58 0 0 1 164.7-164.7q53.39-4.3 106.93-4.3t106.94 4.26A179.57 179.57 0 0 1 783.41 406q4.26 53.39 4.27 106.93t-4.27 106.94a179.56 179.56 0 0 1-164.69 164.65z" fill="#FFB636" /><path d="M445 524.69c-34 16.28-56.65 44.31-56.65 76.54 0 50.55 55.24 57.6 123.39 57.6s123.4-7.05 123.4-57.6c0-32.23-22.71-60.26-56.66-76.54 0 0-25.86-14-67-14-43.97-0.04-66.48 14-66.48 14z" fill="#FFF6DE" /><path d="M437.78 450.04a74 83.09 0 1 0 148 0 74 83.09 0 1 0-148 0Z" fill="#FFF6DE" /></svg>