<?xml version="1.0" standalone="no"?><!DOCTYPE svg PUBLIC "-//W3C//DTD SVG 1.1//EN" "http://www.w3.org/Graphics/SVG/1.1/DTD/svg11.dtd"><svg t="1712481450722" class="icon" viewBox="0 0 2739 1024" version="1.1" xmlns="http://www.w3.org/2000/svg" p-id="6242" width="684.75" height="256" xmlns:xlink="http://www.w3.org/1999/xlink"><path d="M1390.198675 0a512 512 0 1 0 512 512A512 512 0 0 0 1390.198675 0z m415.364239 308.556291h-830.728477V269.189934a14.919205 14.919205 0 0 1 14.885298-14.885298h800.957881a14.919205 14.919205 0 0 1 14.885298 14.885298zM989.719735 769.695364a14.919205 14.919205 0 0 1-14.885298-14.885298V318.728477h830.728477v436.081589a14.919205 14.919205 0 0 1-14.885298 14.885298zM1536.474702 244.13245h-292.450331a305.402914 305.402914 0 0 1 292.518146 0z m-292.450331 535.7351h292.484238a305.335099 305.335099 0 0 1-292.484238 0z" p-id="6243"></path><path d="M998.569536 294.993377h27.125828v-27.125827h-27.125828z m10.172186-16.953642h6.781457v6.781457h-6.781457zM1042.649007 294.993377h27.125827v-27.125827h-27.125827z m10.172185-16.953642h6.781457v6.781457h-6.781457zM1086.728477 294.993377h27.125828v-27.125827h-27.125828z m10.172185-16.953642h6.781457v6.781457h-6.781457zM1168.10596 428.927152h10.172186v10.172186h-10.172186zM1178.278146 439.099338h10.172185v10.172185h-10.172185zM1188.450331 449.271523h10.172186v10.172186h-10.172186zM1198.622517 459.443709h10.172185v10.172185h-10.172185zM1229.139073 489.960265h10.172185v10.172185h-10.172185zM1239.311258 500.13245h10.172186v10.172186h-10.172186zM1249.483444 510.304636h10.172185v10.172185h-10.172185zM1259.655629 520.476821h10.172186v10.172186h-10.172186zM1259.655629 428.927152h10.172186v10.172186h-10.172186zM1249.483444 439.099338h10.172185v10.172185h-10.172185zM1239.311258 449.271523h10.172186v10.172186h-10.172186zM1229.139073 459.443709h10.172185v10.172185h-10.172185zM1229.139073 469.615894h-20.344371v20.344371h20.344371v-20.344371zM1198.622517 489.960265h10.172185v10.172185h-10.172185zM1188.450331 500.13245h10.172186v10.172186h-10.172186zM1178.278146 510.304636h10.172185v10.172185h-10.172185zM1168.10596 520.476821h10.172186v10.172186h-10.172186zM1510.569536 428.927152h10.172186v10.172186h-10.172186zM1520.741722 439.099338h10.172185v10.172185h-10.172185zM1530.913907 449.271523h10.172186v10.172186h-10.172186zM1541.086093 459.443709h10.172185v10.172185h-10.172185zM1551.258278 469.615894v20.344371h20.344371v-20.344371h-20.344371zM1571.602649 489.960265h10.172185v10.172185h-10.172185zM1581.774834 500.13245h10.172186v10.172186h-10.172186zM1591.94702 510.304636h10.172185v10.172185h-10.172185zM1602.119205 520.476821h10.172186v10.172186h-10.172186zM1602.119205 428.927152h10.172186v10.172186h-10.172186zM1591.94702 439.099338h10.172185v10.172185h-10.172185zM1581.774834 449.271523h10.172186v10.172186h-10.172186zM1571.602649 459.443709h10.172185v10.172185h-10.172185zM1541.086093 489.960265h10.172185v10.172185h-10.172185zM1530.913907 500.13245h10.172186v10.172186h-10.172186zM1520.741722 510.304636h10.172185v10.172185h-10.172185zM1510.569536 520.476821h10.172186v10.172186h-10.172186zM1507.178808 618.807947h-254.304636v10.172185h135.629139v20.344371h10.172186v-20.344371h30.516556v20.344371h10.172185v-20.344371h30.516557v20.344371h10.172185v-20.344371h47.470199v-10.172185h-20.344371zM1408.847682 649.324503h-10.172185v20.344371h10.172185v-20.344371zM1439.364238 669.668874h10.172186v-20.344371h-10.172186v20.344371zM1419.019868 669.668874h-10.172186v20.344371h10.172186v-20.344371zM1480.05298 700.18543h10.172186v10.172186h-10.172186zM1429.192053 700.18543v-10.172185h-10.172185v20.344371h20.34437v-10.172186h-10.172185zM1480.05298 669.668874h10.172186v-20.344371h-10.172186v20.344371zM1490.225166 690.013245v10.172185h10.172185v-30.516556h-10.172185v20.344371zM1459.708609 710.357616h-20.344371v10.172185h40.688742v-10.172185h-20.344371zM606.940397 344.15894h-186.490066l116.335894-247.523178H298.384106L0 731.651391h417.059603v197.509934h189.880794v-197.509934h162.754967v-189.880795h-162.754967z m-279.396026 197.611656l89.515232-190.457219v190.457219zM2739.708609 541.770596h-162.754967V344.15894h-186.490066l116.335894-247.523178H2268.397351l-298.384106 635.015629h417.059603v197.509934h189.880794v-197.509934h162.754967z m-442.150993 0l89.515232-190.457219v190.457219z" p-id="6244"></path></svg>