<?xml version="1.0" standalone="no"?><!DOCTYPE svg PUBLIC "-//W3C//DTD SVG 1.1//EN" "http://www.w3.org/Graphics/SVG/1.1/DTD/svg11.dtd"><svg class="icon" width="128px" height="128.00px" viewBox="0 0 1024 1024" version="1.1" xmlns="http://www.w3.org/2000/svg"><path d="M670.64 907.09a1962.1 1962.1 0 0 1-312.53 0 262.4 262.4 0 0 1-240.67-240.66 1962.1 1962.1 0 0 1 0-312.53 262.4 262.4 0 0 1 240.67-240.67 1962.1 1962.1 0 0 1 312.53 0A262.4 262.4 0 0 1 911.3 353.9a1962.1 1962.1 0 0 1 0 312.53 262.4 262.4 0 0 1-240.66 240.66z" fill="#D7FFF4" /><path d="M770.26 688.61L708 626.32a48.09 48.09 0 0 0-68 0 48.09 48.09 0 0 0 0 68l62.29 62.29a48.09 48.09 0 0 0 68 0 48.1 48.1 0 0 0-0.03-68z" fill="#0BD8A2" /><path d="M765.4 494.17c0-142-115.14-257.17-257.17-257.17S251.05 352.14 251.05 494.17s115.14 257.18 257.18 257.18S765.4 636.21 765.4 494.17z" fill="#0BD8A2" /><path d="M660.94 522.11A27.92 27.92 0 0 1 633 494.19a125 125 0 0 0-124.83-124.85 27.92 27.92 0 0 1 0-55.84 180.71 180.71 0 0 1 180.69 180.69 27.92 27.92 0 0 1-27.92 27.92z" fill="#D7FFF4" /></svg>