<?xml version="1.0" standalone="no"?><!DOCTYPE svg PUBLIC "-//W3C//DTD SVG 1.1//EN" "http://www.w3.org/Graphics/SVG/1.1/DTD/svg11.dtd"><svg class="icon" width="128px" height="128.00px" viewBox="0 0 1024 1024" version="1.1" xmlns="http://www.w3.org/2000/svg"><path d="M670.64 907.09a1962.1 1962.1 0 0 1-312.53 0 262.4 262.4 0 0 1-240.67-240.66 1962.1 1962.1 0 0 1 0-312.53 262.4 262.4 0 0 1 240.67-240.67 1962.1 1962.1 0 0 1 312.53 0A262.4 262.4 0 0 1 911.3 353.9a1962.1 1962.1 0 0 1 0 312.53 262.4 262.4 0 0 1-240.66 240.66z" fill="#FFF6DE" /><path d="M647.15 775.79h-269.3c-87.46 0-156.59-74.14-150.47-161.39l15.84-225.91a150.84 150.84 0 0 1 150.47-140.28h237.62a150.84 150.84 0 0 1 150.47 140.28l15.84 225.91c6.12 87.25-63.01 161.39-150.47 161.39z" fill="#FFB636" /><path d="M512.5 569.73c-85.8 0-155.6-69.8-155.6-155.6v-17.05a29.44 29.44 0 0 1 58.87 0v17.05a96.73 96.73 0 0 0 193.46 0v-17.05a29.44 29.44 0 0 1 58.87 0v17.05c0 85.8-69.8 155.6-155.6 155.6z" fill="#FFF6DE" /></svg>