<?xml version="1.0" standalone="no"?><!DOCTYPE svg PUBLIC "-//W3C//DTD SVG 1.1//EN" "http://www.w3.org/Graphics/SVG/1.1/DTD/svg11.dtd"><svg class="icon" width="128px" height="128.00px" viewBox="0 0 1024 1024" version="1.1" xmlns="http://www.w3.org/2000/svg"><path d="M669.64 907.09a1962.1 1962.1 0 0 1-312.53 0 262.4 262.4 0 0 1-240.67-240.66 1962.1 1962.1 0 0 1 0-312.53 262.4 262.4 0 0 1 240.67-240.67 1962.1 1962.1 0 0 1 312.53 0A262.4 262.4 0 0 1 910.3 353.9a1962.1 1962.1 0 0 1 0 312.53 262.4 262.4 0 0 1-240.66 240.66z" fill="#FFF6DE" /><path d="M741.93 312.12L707.76 278a98.78 98.78 0 0 0-81.49-28.26l-106.8 12.64a98.82 98.82 0 0 0-58.33 28.34L265.92 486.31A90.41 90.41 0 0 0 266 614.1l139.78 139.79a90.41 90.41 0 0 0 127.79 0.07l195.64-195.22a98.81 98.81 0 0 0 28.33-58.33l12.65-106.8a98.78 98.78 0 0 0-28.26-81.49z" fill="#FFB636" /><path d="M627.74 392.14m-66.68 0a66.68 66.68 0 1 0 133.36 0 66.68 66.68 0 1 0-133.36 0Z" fill="#FFF6DE" /><path d="M472.11 690.06a27.82 27.82 0 0 1-19.74-8.17L338.52 568A27.92 27.92 0 0 1 378 528.56l113.85 113.85a27.91 27.91 0 0 1-19.74 47.65z" fill="#FFF6DE" /></svg>