<?xml version="1.0" standalone="no"?><!DOCTYPE svg PUBLIC "-//W3C//DTD SVG 1.1//EN" "http://www.w3.org/Graphics/SVG/1.1/DTD/svg11.dtd"><svg class="icon" width="128px" height="128.00px" viewBox="0 0 1024 1024" version="1.1" xmlns="http://www.w3.org/2000/svg"><path d="M670.64 908.09a1962.1 1962.1 0 0 1-312.53 0 262.4 262.4 0 0 1-240.67-240.66 1962.1 1962.1 0 0 1 0-312.53 262.4 262.4 0 0 1 240.67-240.67 1962.1 1962.1 0 0 1 312.53 0A262.4 262.4 0 0 1 911.3 354.9a1962.1 1962.1 0 0 1 0 312.53 262.4 262.4 0 0 1-240.66 240.66z" fill="#FFE4CF" /><path d="M688.77 415.64a49.25 49.25 0 0 1 36.7-47.64A16.73 16.73 0 0 0 738 351.86v-46.28a64.32 64.32 0 0 0-64.32-64.32H358.45a64.33 64.33 0 0 0-64.33 64.32v46.28A16.72 16.72 0 0 0 306.66 368a49.24 49.24 0 0 1 0 95.23 16.73 16.73 0 0 0-12.54 16.16v234a64.33 64.33 0 0 0 64.33 64.32h315.23A64.32 64.32 0 0 0 738 713.42v-234a16.74 16.74 0 0 0-12.53-16.16 49.24 49.24 0 0 1-36.7-47.62z" fill="#FF6E1F" /><path d="M634.06 684.92h-236a26.49 26.49 0 1 1 0-53h236a26.49 26.49 0 0 1 0 53z" fill="#FFE4CF" /></svg>