<?xml version="1.0" standalone="no"?><!DOCTYPE svg PUBLIC "-//W3C//DTD SVG 1.1//EN" "http://www.w3.org/Graphics/SVG/1.1/DTD/svg11.dtd"><svg class="icon" width="128px" height="128.00px" viewBox="0 0 1024 1024" version="1.1" xmlns="http://www.w3.org/2000/svg"><path d="M669.64 907.09a1962.1 1962.1 0 0 1-312.53 0 262.4 262.4 0 0 1-240.67-240.66 1962.1 1962.1 0 0 1 0-312.53 262.4 262.4 0 0 1 240.67-240.67 1962.1 1962.1 0 0 1 312.53 0A262.4 262.4 0 0 1 910.3 353.9a1962.1 1962.1 0 0 1 0 312.53 262.4 262.4 0 0 1-240.66 240.66z" fill="#FFF6DE" /><path d="M667.48 757.16l-37.39 3q-58 4.64-116.2 4.65-58.5 0-116.91-4.65l-37.38-3A151.7 151.7 0 0 1 220.46 618l-3.26-40.9c-2.87-35.89-2.87-94.64 0-130.53l3.26-40.9a151.7 151.7 0 0 1 139.14-139.1l37.38-3q58.18-4.65 116.56-4.65t116.55 4.65l37.39 3A151.69 151.69 0 0 1 806.61 405.7l3 37.39c3.1 38.79 3.3 115.86 0 137.55l-3 37.39a151.69 151.69 0 0 1-139.13 139.13z" fill="#FFB636" /><path d="M511.7 517.6a231.47 231.47 0 0 1-128-38.5l-86.6-57.39a23.89 23.89 0 0 1 26.39-39.83l86.63 57.39a184.11 184.11 0 0 0 200.29 1.86l93.52-59.49A23.89 23.89 0 0 1 729.57 422l-93.52 59.49A231.49 231.49 0 0 1 511.7 517.6z" fill="#FFF6DE" /></svg>