<?xml version="1.0" standalone="no"?><!DOCTYPE svg PUBLIC "-//W3C//DTD SVG 1.1//EN" "http://www.w3.org/Graphics/SVG/1.1/DTD/svg11.dtd"><svg class="icon" width="128px" height="128.00px" viewBox="0 0 1024 1024" version="1.1" xmlns="http://www.w3.org/2000/svg"><path d="M670.64 908.09a1962.1 1962.1 0 0 1-312.53 0 262.4 262.4 0 0 1-240.67-240.66 1962.1 1962.1 0 0 1 0-312.53 262.4 262.4 0 0 1 240.67-240.67 1962.1 1962.1 0 0 1 312.53 0A262.4 262.4 0 0 1 911.3 354.9a1962.1 1962.1 0 0 1 0 312.53 262.4 262.4 0 0 1-240.66 240.66z" fill="#D7FFF4" /><path d="M319.22 766.62l156.42-41A129.14 129.14 0 0 0 534.31 692l256.18-256.59a52.74 52.74 0 0 0 0-74.56L676 246.35a52.75 52.75 0 0 0-74.61 0L345.22 502.8a129.17 129.17 0 0 0-33.63 58.79l-40.76 156.73c-7.62 29.3 19.1 55.97 48.39 48.3z" fill="#0BD8A2" /><path d="M716.959621 352.39419m23.334523 23.334523l0 0q23.334524 23.334524 0 46.669048l-242.537626 242.537626q-23.334524 23.334524-46.669047 0l0 0q-23.334524-23.334524 0-46.669048l242.537626-242.537626q23.334524-23.334524 46.669047 0Z" fill="#D7FFF4" /></svg>