<?xml version="1.0" standalone="no"?><!DOCTYPE svg PUBLIC "-//W3C//DTD SVG 1.1//EN" "http://www.w3.org/Graphics/SVG/1.1/DTD/svg11.dtd"><svg class="icon" width="128px" height="128.00px" viewBox="0 0 1024 1024" version="1.1" xmlns="http://www.w3.org/2000/svg"><path d="M668.64 909.09a1962.1 1962.1 0 0 1-312.53 0 262.4 262.4 0 0 1-240.67-240.66 1962.1 1962.1 0 0 1 0-312.53 262.4 262.4 0 0 1 240.67-240.67 1962.1 1962.1 0 0 1 312.53 0A262.4 262.4 0 0 1 909.3 355.9a1962.1 1962.1 0 0 1 0 312.53 262.4 262.4 0 0 1-240.66 240.66z" fill="#FFDEDE" /><path d="M796 482l-2.66-33.28a126.29 126.29 0 0 0-115.85-115.86l-33.29-2.66h-0.2a18.68 18.68 0 0 1-17-16.28l-1.6-12.72a36.21 36.21 0 0 0-35.93-31.69H434.53a36.21 36.21 0 0 0-35.93 31.69l-1.6 12.72a18.66 18.66 0 0 1-17.06 16.27h-0.13l-33.29 2.66a126.29 126.29 0 0 0-115.83 115.84l-2.91 36.4c-2.42 30.26-2.42 79.79 0 110.05l2.91 36.41a126.29 126.29 0 0 0 115.82 115.82L379.8 750c32.89 2.63 99.52 3.94 132.5 3.93 32.77 0 99.21-1.32 131.9-3.93l33.29-2.66a126.29 126.29 0 0 0 115.82-115.8l2.69-33.28c2.76-18.33 2.59-83.5 0-116.26z" fill="#FF3B3B" /><path d="M511.98 541.95m-126.66 0a126.66 126.66 0 1 0 253.32 0 126.66 126.66 0 1 0-253.32 0Z" fill="#FFDEDE" /><path d="M716.79 410.93m-21.79 0a21.79 21.79 0 1 0 43.58 0 21.79 21.79 0 1 0-43.58 0Z" fill="#FFDEDE" /></svg>