<?xml version="1.0" standalone="no"?><!DOCTYPE svg PUBLIC "-//W3C//DTD SVG 1.1//EN" "http://www.w3.org/Graphics/SVG/1.1/DTD/svg11.dtd"><svg class="icon" width="128px" height="128.00px" viewBox="0 0 1024 1024" version="1.1" xmlns="http://www.w3.org/2000/svg"><path d="M673.64 909.09a1962.1 1962.1 0 0 1-312.53 0 262.4 262.4 0 0 1-240.67-240.66 1962.1 1962.1 0 0 1 0-312.53 262.4 262.4 0 0 1 240.67-240.67 1962.1 1962.1 0 0 1 312.53 0A262.4 262.4 0 0 1 914.3 355.9a1962.1 1962.1 0 0 1 0 312.53 262.4 262.4 0 0 1-240.66 240.66z" fill="#FFDEDE" /><path d="M672.76 455a31.2 31.2 0 0 1-31.19-31.19v-22a121.86 121.86 0 1 0-243.71 0v22a31.19 31.19 0 1 1-62.38 0v-22a184.24 184.24 0 0 1 368.47 0v22A31.19 31.19 0 0 1 672.76 455z" fill="#FF3B3B" /><path d="M672.06 779.73l-30.63 2.45c-30.1 2.41-91.26 3.61-121.43 3.62-30.35 0-91.69-1.2-122-3.62l-30.63-2.45a116.23 116.23 0 0 1-106.59-106.62l-2.68-33.51a549.88 549.88 0 0 1 0-85.71l2.68-33.51A116.25 116.25 0 0 1 367.4 413.76l30.6-2.45c30.19-2.41 91.44-3.61 121.7-3.61s91.51 1.2 121.7 3.61l30.63 2.45a116.25 116.25 0 0 1 106.65 106.62l2.45 30.62c2.41 30.19 2.57 74.58 0 91.46l-2.45 30.63a116.23 116.23 0 0 1-106.62 106.64z" fill="#FF3B3B" /><path d="M519.71 658a31.18 31.18 0 0 1-31.18-31.19v-81.88a31.19 31.19 0 1 1 62.37 0v81.84A31.18 31.18 0 0 1 519.71 658z" fill="#FFDEDE" /><path d="M519.71 639.53m-61.64 0a61.64 61.64 0 1 0 123.28 0 61.64 61.64 0 1 0-123.28 0Z" fill="#FFDEDE" /></svg>