<?xml version="1.0" standalone="no"?><!DOCTYPE svg PUBLIC "-//W3C//DTD SVG 1.1//EN" "http://www.w3.org/Graphics/SVG/1.1/DTD/svg11.dtd"><svg class="icon" width="128px" height="128.00px" viewBox="0 0 1024 1024" version="1.1" xmlns="http://www.w3.org/2000/svg"><path d="M665.9 904.25a1962 1962 0 0 1-312.52 0 262.4 262.4 0 0 1-240.67-240.67 1962 1962 0 0 1 0-312.52 262.4 262.4 0 0 1 240.67-240.67 1962 1962 0 0 1 312.52 0 262.4 262.4 0 0 1 240.67 240.67 1962 1962 0 0 1 0 312.52A262.4 262.4 0 0 1 665.9 904.25z" fill="#FFE4CF" /><path d="M270.33 694.43l-4.66-44.23q-4.56-57-4.57-114.18c0-38.33 1.52-92.3 4.57-130.53l2.57-32.12a154.49 154.49 0 0 1 141.69-141.7l37.6-3c34.16-2.73 90.06-2.73 124.22 0l37.59 3A154.49 154.49 0 0 1 751 373.37l2.57 32.12c3 38.12 4.57 92 4.57 130.18s-1.53 76.41-4.57 114.53L749 694.43c-0.14 1.75-0.32 3.48-0.53 5.2-9.83 80.49-106.62 116.59-167.47 63C556.93 741.5 536 721 509.64 721c-24.7 0-47.76 20.64-72.4 41.78C375.46 815.73 278.72 778 270.56 697c-0.08-0.85-0.16-1.71-0.23-2.57z" fill="#FF6E1F" /><path d="M529.75 389.31l23.7 48a22.43 22.43 0 0 0 16.89 12.27l53 7.7c18.39 2.67 25.74 25.28 12.43 38.26l-38.35 37.37a22.47 22.47 0 0 0-6.42 19.87l9 52.78c3.14 18.32-16.09 32.29-32.55 23.64l-47.39-24.91a22.41 22.41 0 0 0-20.88 0l-47.37 24.91c-16.46 8.65-35.69-5.32-32.55-23.64l9.06-52.78a22.44 22.44 0 0 0-6.46-19.85l-38.34-37.37c-13.31-13-6-35.59 12.43-38.26l53-7.7a22.43 22.43 0 0 0 16.89-12.27l23.7-48c8.21-16.69 31.98-16.69 40.21-0.02z" fill="#FFE4CF" /></svg>