<?xml version="1.0" standalone="no"?><!DOCTYPE svg PUBLIC "-//W3C//DTD SVG 1.1//EN" "http://www.w3.org/Graphics/SVG/1.1/DTD/svg11.dtd"><svg class="icon" width="128px" height="128.00px" viewBox="0 0 1024 1024" version="1.1" xmlns="http://www.w3.org/2000/svg"><path d="M668.64 907.09a1962.1 1962.1 0 0 1-312.53 0 262.4 262.4 0 0 1-240.67-240.66 1962.1 1962.1 0 0 1 0-312.53 262.4 262.4 0 0 1 240.67-240.67 1962.1 1962.1 0 0 1 312.53 0A262.4 262.4 0 0 1 909.3 353.9a1962.1 1962.1 0 0 1 0 312.53 262.4 262.4 0 0 1-240.66 240.66z" fill="#D7FFF4" /><path d="M251.47 509.11c0-148.15 120.11-268.26 268.27-268.26S788 361.08 788 509.12 667.89 777.38 519.74 777.38c-4.3 0-8.58-0.12-12.83-0.32H285.24c-9.86-0.57-15.22-11.89-9.83-20.17l26.59-40.8a46.06 46.06 0 0 0-1.12-51.84 267 267 0 0 1-49.41-155.14z" fill="#0BD8A2" /><path d="M595.45 563.93a12.57 12.57 0 0 1 12.45 14.49 91.91 91.91 0 0 1-181.52 0 12.58 12.58 0 0 1 12.45-14.49z" fill="#D7FFF4" /><path d="M401.82 455.95m-34.46 0a34.46 34.46 0 1 0 68.92 0 34.46 34.46 0 1 0-68.92 0Z" fill="#D7FFF4" /><path d="M629.26 455.95m-34.46 0a34.46 34.46 0 1 0 68.92 0 34.46 34.46 0 1 0-68.92 0Z" fill="#D7FFF4" /></svg>