<?xml version="1.0" standalone="no"?><!DOCTYPE svg PUBLIC "-//W3C//DTD SVG 1.1//EN" "http://www.w3.org/Graphics/SVG/1.1/DTD/svg11.dtd"><svg class="icon" width="128px" height="128.00px" viewBox="0 0 1024 1024" version="1.1" xmlns="http://www.w3.org/2000/svg"><path d="M670.64 907.09a1962.1 1962.1 0 0 1-312.53 0 262.4 262.4 0 0 1-240.67-240.66 1962.1 1962.1 0 0 1 0-312.53 262.4 262.4 0 0 1 240.67-240.67 1962.1 1962.1 0 0 1 312.53 0A262.4 262.4 0 0 1 911.3 353.9a1962.1 1962.1 0 0 1 0 312.53 262.4 262.4 0 0 1-240.66 240.66z" fill="#D7FFF4" /><path d="M557 256l51.26 103.86a48.53 48.53 0 0 0 36.53 26.54l114.62 16.66c39.79 5.78 55.68 54.68 26.89 82.74l-82.94 80.85a48.53 48.53 0 0 0-14 42.94L709 723.74c6.8 39.63-34.8 69.85-70.39 51.14L536.08 721a48.53 48.53 0 0 0-45.16 0l-102.51 53.9c-35.59 18.71-77.19-11.51-70.39-51.14l19.58-114.18a48.53 48.53 0 0 0-14-42.94l-82.9-80.85c-28.79-28.06-12.9-77 26.89-82.74l114.62-16.66a48.53 48.53 0 0 0 36.53-26.54L470 256c17.79-36.07 69.21-36.07 87 0z" fill="#0BD8A2" /><path d="M569.29 550a9 9 0 0 1 8.94 10.41 66 66 0 0 1-130.42 0 9 9 0 0 1 8.95-10.41z" fill="#D7FFF4" /><path d="M430.16 472.46m-24.76 0a24.76 24.76 0 1 0 49.52 0 24.76 24.76 0 1 0-49.52 0Z" fill="#D7FFF4" /><path d="M593.58 472.46m-24.76 0a24.76 24.76 0 1 0 49.52 0 24.76 24.76 0 1 0-49.52 0Z" fill="#D7FFF4" /></svg>