<?xml version="1.0" standalone="no"?><!DOCTYPE svg PUBLIC "-//W3C//DTD SVG 1.1//EN" "http://www.w3.org/Graphics/SVG/1.1/DTD/svg11.dtd"><svg class="icon" width="128px" height="128.00px" viewBox="0 0 1024 1024" version="1.1" xmlns="http://www.w3.org/2000/svg"><path d="M673.64 908.09a1962.1 1962.1 0 0 1-312.53 0 262.4 262.4 0 0 1-240.67-240.66 1962.1 1962.1 0 0 1 0-312.53 262.4 262.4 0 0 1 240.67-240.67 1962.1 1962.1 0 0 1 312.53 0A262.4 262.4 0 0 1 914.3 354.9a1962.1 1962.1 0 0 1 0 312.53 262.4 262.4 0 0 1-240.66 240.66z" fill="#D3EEFF" /><path d="M616.55 763.39q-49.8 4-99.77 4-50.22 0-100.37-4a168 168 0 0 1-154.13-154.12q-4-50-4-100.08t4-100.07A168 168 0 0 1 416.4 255q49.95-4 100.07-4t100.07 4a168 168 0 0 1 154.14 154.12q4 50 4 100.07t-4 100.08a168 168 0 0 1-154.13 154.12z" fill="#39B2FF" /><path d="M597 482.69l-106.15-66.13c-20.8-12.95-47.73 2-47.73 26.5v132.27c0 24.5 26.93 39.45 47.73 26.49L597 535.69a31.22 31.22 0 0 0 0-53z" fill="#D3EEFF" /></svg>