<?xml version="1.0" standalone="no"?><!DOCTYPE svg PUBLIC "-//W3C//DTD SVG 1.1//EN" "http://www.w3.org/Graphics/SVG/1.1/DTD/svg11.dtd"><svg t="1710149021456" class="icon" viewBox="0 0 1024 1024" version="1.1" xmlns="http://www.w3.org/2000/svg" p-id="5133" xmlns:xlink="http://www.w3.org/1999/xlink" width="200" height="200"><path d="M480.426667 132.650667l-53.632 386.389333 39.722666 110.336-96.597333 120.106667a16.213333 16.213333 0 0 0 14.037333 26.282666l131.157334-11.434666 53.504 98.56-385.066667 28.117333a81.066667 81.066667 0 0 1-87.808-73.685333l-49.493333-565.333334a81.066667 81.066667 0 0 1 73.728-87.808l360.448-31.573333z m150.144 0.426666l285.141333 29.994667a81.066667 81.066667 0 0 1 72.149333 89.088l-59.306666 564.352a81.066667 81.066667 0 0 1-89.130667 72.149333l-245.333333-25.728-49.962667-103.168 252.416 26.538667a16.213333 16.213333 0 0 0 15.018667-25.344l-159.146667-229.632a16.213333 16.213333 0 0 0-22.613333-4.096l-1.194667 0.938667-106.453333 89.856-17.92-115.882667 126.293333-369.066667z m-334.933334 178.474667a81.066667 81.066667 0 1 0 14.08 161.536 81.066667 81.066667 0 0 0-14.08-161.536z" p-id="5134"></path></svg>