<?xml version="1.0" standalone="no"?><!DOCTYPE svg PUBLIC "-//W3C//DTD SVG 1.1//EN" "http://www.w3.org/Graphics/SVG/1.1/DTD/svg11.dtd"><svg t="1725630038187" class="icon" viewBox="0 0 3485 1024" version="1.1" xmlns="http://www.w3.org/2000/svg" p-id="4606" width="435.625" height="128" xmlns:xlink="http://www.w3.org/1999/xlink"><path d="M494.464019 29.444287h2667.716576A293.52135 293.52135 0 0 1 3455.701946 323.392267v377.140805a293.52135 293.52135 0 0 1-293.521351 293.521351H494.464019V29.444287z" fill="#DEEEF9" p-id="4607"></path><path d="M3136.156173 1023.918514H511.955844a85.325974 85.325974 0 0 1-85.325974-85.325974V85.3328a85.325974 85.325974 0 0 1 85.325974-85.325974h2624.200329a346.850084 346.850084 0 0 1 348.983234 344.290305v334.904448A346.850084 346.850084 0 0 1 3136.156173 1023.918514zM511.955844 59.308378a24.744532 24.744532 0 0 0-24.744533 24.317903V938.59254a24.744532 24.744532 0 0 0 24.744533 24.317902h2624.200329a287.121902 287.121902 0 0 0 289.255052-285.415383V344.297131a287.121902 287.121902 0 0 0-288.828422-285.415383z" fill="#30A2F3" p-id="4608"></path><path d="M981.248701 637.391852L620.319831 981.255527a154.440013 154.440013 0 0 1-213.314935 0l-359.222351-343.863675A154.866643 154.866643 0 0 1 10.665747 469.299683l145.907415-370.741357A154.440013 154.440013 0 0 1 298.640909 0.006826h426.62987a154.440013 154.440013 0 0 1 145.054155 98.5515L1016.23235 469.299683a154.866643 154.866643 0 0 1-34.983649 168.092169z" fill="#30A2F3" p-id="4609"></path><path d="M218.434493 732.530313l-67.834149-64.847741a398.898928 398.898928 0 0 0 67.834149 64.847741z" fill="#5BB2EF" p-id="4610"></path><path d="M956.930798 473.992611l-127.988961-326.37185a136.094928 136.094928 0 0 0-127.988961-85.325974h-66.980889a396.339149 396.339149 0 1 1-415.537494 670.235526l200.942669 191.983441a136.094928 136.094928 0 0 0 188.143773 0l316.559363-302.480578a136.094928 136.094928 0 0 0 32.8505-148.040565zM102.817799 622.033176l47.355915 45.222767a395.059259 395.059259 0 0 1-85.325974-183.024215 136.094928 136.094928 0 0 0 37.970059 137.801448z" fill="#4EAEF1" p-id="4611"></path><path d="M853.25974 416.397579a396.339149 396.339149 0 0 0-220.567643-355.382682h-307.173506a136.094928 136.094928 0 0 0-127.988961 85.325974l-20.904864 58.021663a298.640909 298.640909 0 1 1-69.540669 191.130181v-16.638565l-37.543428 95.138461c0 3.413039-2.133149 7.252708-3.413039 10.665747a395.059259 395.059259 0 0 0 85.325974 183.024214l67.834149 64.847741A396.339149 396.339149 0 0 0 853.25974 416.397579z" fill="#5BB2EF" p-id="4612"></path><path d="M107.084097 395.492715a298.640909 298.640909 0 1 0 69.540669-191.130181L107.937357 378.85415c-0.42663 5.119558-0.85326 10.665747-0.85326 16.638565z m262.804-213.314935a179.184545 179.184545 0 1 1-179.184545 179.184546 179.184545 179.184545 0 0 1 179.184545-177.904656z" fill="#6AB8F0" p-id="4613"></path><path d="M369.888097 362.642215m-179.184545 0a179.184545 179.184545 0 1 0 358.36909 0 179.184545 179.184545 0 1 0-358.36909 0Z" fill="#79BDED" p-id="4614"></path><path d="M511.955844 868.625241a115.190065 115.190065 0 0 1-81.912935-34.13039l-119.456364-120.736253a40.103208 40.103208 0 0 1 56.741773-56.741772l120.736253 120.736253a36.263539 36.263539 0 0 0 50.342325 0l32.8505-32.8505a40.103208 40.103208 0 0 1 57.168402 56.741773l-32.8505 32.850499a115.616695 115.616695 0 0 1-83.619454 34.13039zM688.15398 725.277605a42.662987 42.662987 0 0 1-28.584201-11.945637 40.103208 40.103208 0 0 1-11.945637-28.584201 42.662987 42.662987 0 0 1 11.945637-28.584201l6.399448-5.119559 6.826078-3.839668 7.679337-2.13315a42.662987 42.662987 0 0 1 36.263539 10.665747 49.489065 49.489065 0 0 1 5.119559 5.972818 31.99724 31.99724 0 0 1 3.839669 7.252708 30.290721 30.290721 0 0 1 2.133149 7.252708 32.42387 32.42387 0 0 1 0 7.679337 40.103208 40.103208 0 0 1-11.945636 28.584202 42.662987 42.662987 0 0 1-27.730942 12.798896z" fill="#FFFFFF" p-id="4615"></path><path d="M1703.53307 693.706994c18.345084 0 21.758123-9.812487 23.891273-68.260779a192.836701 192.836701 0 0 0 57.595032 24.744533c-6.826078 78.499896-23.464643 100.684649-76.366746 100.684649h-72.100448c-63.99448 0-80.206416-18.771714-80.206416-75.940117v-99.40476h-8.532597c-27.730942 78.499896-85.325974 143.347636-220.994273 180.891065a199.236149 199.236149 0 0 0-35.836909-53.328733c109.643877-27.730942 160.839461-72.527078 186.437253-127.988961h-133.108519V456.500787c-5.546188 4.692929-11.092377 8.959227-17.065195 13.225526a192.836701 192.836701 0 0 0-44.796136-48.209176 451.801032 451.801032 0 0 0 150.173714-162.97261l68.260779 12.798896c-4.266299 8.105968-8.959227 16.638565-14.505415 24.744533h106.230837l10.665747-2.559779 42.662987 28.157571a537.553636 537.553636 0 0 1-50.342325 72.100448h144.200896v181.744324H1621.193505v97.698241c0 18.345084 3.413039 20.478234 23.464643 20.478233z m-207.342116-174.918246a561.871539 561.871539 0 0 0 8.959227-69.114039H1407.87857v69.114039zM1450.541557 347.71017a519.635181 519.635181 0 0 1-38.823318 46.076026h111.350396a421.510311 421.510311 0 0 0 33.70376-46.076026z m122.016143 101.964539a692.420279 692.420279 0 0 1-9.812487 69.114039h111.777026v-68.687409zM2110.537966 597.288644c-21.758123 88.312383-73.806967 137.801448-261.95074 162.11935a197.103 197.103 0 0 0-27.304312-54.181993c170.651948-16.211935 208.622006-48.209175 226.540461-107.937357z m73.806968 72.100448c50.342325 14.078786 102.817799 29.864091 135.668298 42.662987l-35.836909 47.782545a1578.530518 1578.530518 0 0 0-203.929078-66.12763l32.42387-42.662987c21.331493 4.692929 45.222766 10.665747 70.393929 17.491825v-88.739013H1958.231103v94.711831h-61.861332v-127.988961l-35.836909 7.679338a207.768747 207.768747 0 0 0-31.14398-48.635805 270.909967 270.909967 0 0 0 122.016143-42.662987h-93.005312A1049.50948 1049.50948 0 0 0 1877.171427 355.389508h110.497137v-25.171163h-125.855812v-42.662987h124.149292v-26.451052h57.168403v27.304312h58.874922v-27.304312h59.728181v27.304312h112.203656v108.790617h-112.203656v23.038013h145.907416v17.491825a122.442773 122.442773 0 0 1-14.932045 66.980889 45.222766 45.222766 0 0 1-31.143981 14.078786 317.839253 317.839253 0 0 1-50.342325 0 114.763435 114.763435 0 0 0-10.665746-38.823318 229.9535 229.9535 0 0 0 29.437461 0 12.798896 12.798896 0 0 0 11.092376-4.266299 31.14398 31.14398 0 0 0 4.692929-14.505416h-85.325974v56.315143h-59.728182v-55.888513H2026.491882a143.774266 143.774266 0 0 1-76.366747 66.98089h298.640909v140.787857z m-261.097481-249.578474h57.168403a107.510727 107.510727 0 0 0 4.266298-23.038013h-58.021662z m178.757916-23.038013h-59.728182c0 8.105968 0 15.358675-2.133149 23.038013h61.861331z m-58.874922-42.662987h58.874922v-23.891273h-58.874922z m118.603103-25.171162v25.171162h54.608624v-23.891273zM2549.966732 516.655598v241.472507h-57.595032v-185.157364h-48.635806a444.121695 444.121695 0 0 1-46.076025 189.850292 283.708863 283.708863 0 0 0-42.662987-39.676578 625.012759 625.012759 0 0 0 34.130389-242.325766V274.756462h58.448292v127.988961h36.263539V260.677677h57.168403v140.787857h36.690169v56.315142h-131.402V517.082228z m293.52135-101.537909A574.670435 574.670435 0 0 1 2777.360453 639.951631a258.537701 258.537701 0 0 0 81.059675 71.247188 234.219799 234.219799 0 0 0-42.662987 50.768955 298.640909 298.640909 0 0 1-73.380338-69.114039 308.453396 308.453396 0 0 1-85.325974 69.114039 296.08113 296.08113 0 0 0-33.277129-47.782546 246.165435 246.165435 0 0 1-23.464643 50.768955 263.23063 263.23063 0 0 0-50.342325-35.410279c39.249948-70.393929 42.662987-182.170954 42.662987-258.111072V292.674917A1596.022343 1596.022343 0 0 0 2815.757141 263.237456l35.410279 55.461883a1355.829726 1355.829726 0 0 1-197.956259 25.171162v63.994481h141.214486l10.239117-2.13315z m-136.948188 222.274163a654.02359 654.02359 0 0 1-52.475474-145.480786 767.933766 767.933766 0 0 1-27.730941 213.314935 250.431734 250.431734 0 0 0 80.206415-67.40752z m-8.959227-170.651948a570.404136 570.404136 0 0 0 42.662987 116.896584 486.784681 486.784681 0 0 0 37.970058-116.896584z" fill="#30A2F3" p-id="4616"></path></svg>